<svg version="1.1" id="Layer_1" xmlns="http://www.w3.org/2000/svg" xmlns:xlink="http://www.w3.org/1999/xlink" x="0px" y="0px"
	 width="100%" viewBox="0 0 517 646" enable-background="new 0 0 517 646" xml:space="preserve">
<path fill="#000000" opacity="1.000000" stroke="none" 
	d="
M518.000000,257.000000 
	C518.000000,387.333344 518.000000,517.166687 518.000000,647.000000 
	C345.666656,647.000000 173.333328,647.000000 1.000000,647.000000 
	C1.000000,431.666656 1.000000,216.333328 1.000000,1.000000 
	C173.333328,1.000000 345.666656,1.000000 518.000000,1.000000 
	C518.000000,86.166664 518.000000,171.333328 518.000000,257.000000 
M163.500000,82.993507 
	C133.921112,82.993507 104.342239,82.993507 74.774780,82.993507 
	C74.774780,163.204880 74.774780,242.760422 74.774780,323.066101 
	C75.671738,322.065125 76.138283,321.672394 76.447701,321.180786 
	C89.466675,300.496552 102.523132,279.835449 115.398201,259.061951 
	C116.677040,256.998566 117.424377,254.244675 117.431870,251.808228 
	C117.554878,211.809265 117.595024,171.809494 117.416672,131.810944 
	C117.395981,127.169861 118.662331,125.896187 123.313133,125.906136 
	C191.478363,126.052086 259.644012,126.003212 327.809540,126.025078 
	C329.545532,126.025635 331.281433,126.302391 333.558929,126.496475 
	C331.584686,129.974960 330.148438,132.883102 328.373474,135.567230 
	C320.847321,146.948257 313.117218,158.195251 305.657379,169.619064 
	C296.751099,183.257889 288.091919,197.057755 279.240784,210.732910 
	C266.048950,231.114609 252.701447,251.395905 239.571640,271.817291 
	C226.909576,291.511108 214.561462,311.407288 201.845551,331.065826 
	C192.200226,345.977295 182.096481,360.591431 172.371902,375.452545 
	C158.987167,395.907135 145.724701,416.442169 132.492966,436.996216 
	C124.030708,450.141357 115.911964,463.512970 107.202164,476.489685 
	C105.041588,479.708710 103.039551,481.427826 107.579926,484.098846 
	C132.708237,498.881470 157.712799,513.874268 182.822067,528.689453 
	C197.268097,537.213013 211.857025,545.494019 226.334442,553.964905 
	C236.996994,560.203674 247.494232,566.732239 258.275269,572.755615 
	C260.535126,574.018127 264.357971,574.858398 266.361816,573.804321 
	C276.563080,568.438293 286.421539,562.416931 296.366089,556.567322 
	C316.638519,544.642639 336.861450,532.633545 357.157806,520.749817 
	C373.056641,511.440796 389.055054,502.302002 404.972839,493.025146 
	C419.640717,484.476715 434.213196,475.763153 448.943542,467.324585 
	C451.640656,465.779510 452.577484,464.074646 452.574707,461.047882 
	C452.504242,384.215881 452.520813,307.383789 452.501282,230.551727 
	C452.501007,229.571747 452.231354,228.591812 451.968048,226.798492 
	C444.877808,237.865784 438.323395,248.147552 431.715759,258.394989 
	C426.243225,266.882050 420.680450,275.310913 415.209656,283.799072 
	C411.121521,290.141937 408.084442,296.367279 408.231903,304.656830 
	C408.830597,338.312286 408.439545,371.984772 408.540833,405.650574 
	C408.551666,409.249939 408.041168,411.084869 403.725647,411.076904 
	C338.226929,410.956757 272.727966,411.001099 207.229080,410.948059 
	C205.639130,410.946777 204.049728,410.269867 201.781204,409.753540 
	C272.474365,300.548248 342.610657,192.203186 413.306671,82.993507 
	C329.679321,82.993507 247.089661,82.993507 163.500000,82.993507 
M167.802505,240.213562 
	C165.539627,243.786850 163.285950,247.365997 161.012390,250.932480 
	C145.785049,274.819092 130.625519,298.749359 115.300079,322.572876 
	C103.494667,340.924469 91.608704,359.227631 79.475365,377.362854 
	C75.979858,382.587433 74.205772,387.711273 74.321983,394.152893 
	C74.715500,415.965576 74.472107,437.789734 74.472107,459.609528 
	C74.472107,461.184326 74.472107,462.759155 74.472107,465.339691 
	C140.542648,363.060089 205.972366,261.772522 271.721466,159.990524 
	C255.074112,159.990524 238.946564,159.918915 222.822205,160.112823 
	C221.376160,160.130234 219.488174,161.550552 218.594925,162.858505 
	C214.468552,168.900604 210.676041,175.169189 206.664368,181.291428 
	C193.903229,200.766266 181.097778,220.212082 167.802505,240.213562 
M265.853394,373.115936 
	C264.993317,374.158142 264.133240,375.200348 262.640594,377.009064 
	C280.299469,377.009064 296.774536,377.053375 313.247986,376.910522 
	C314.359833,376.900879 315.830170,375.722382 316.510803,374.680511 
	C334.861542,346.590332 353.179352,318.478271 371.394562,290.299988 
	C381.539093,274.606750 391.484070,258.784546 401.529602,243.027191 
	C410.632507,228.748489 419.694458,214.443253 428.881714,200.218964 
	C434.273926,191.870438 439.540436,183.406631 445.482574,175.457428 
	C450.853851,168.271835 452.977570,160.787430 452.716217,151.738327 
	C452.119995,131.093750 452.532898,110.420189 452.516846,89.758423 
	C452.515747,88.362526 452.355652,86.966759 452.243744,85.153877 
	C451.394440,85.844597 450.910828,86.077278 450.663574,86.461914 
	C432.870850,114.137901 415.140350,141.854034 397.306885,169.503738 
	C384.385193,189.537994 371.269348,209.447021 358.346802,229.480713 
	C338.657562,260.004669 319.098419,290.612518 299.403595,321.132904 
	C292.677246,331.556488 285.622772,341.768188 278.881744,352.182556 
	C274.549042,358.876312 270.514648,365.763153 265.853394,373.115936 
z"/>
<path fill="#FCFCFC" opacity="1.000000" stroke="none" 
	d="
M164.000000,82.993507 
	C247.089661,82.993507 329.679321,82.993507 413.306671,82.993507 
	C342.610657,192.203186 272.474365,300.548248 201.781204,409.753540 
	C204.049728,410.269867 205.639130,410.946777 207.229080,410.948059 
	C272.727966,411.001099 338.226929,410.956757 403.725647,411.076904 
	C408.041168,411.084869 408.551666,409.249939 408.540833,405.650574 
	C408.439545,371.984772 408.830597,338.312286 408.231903,304.656830 
	C408.084442,296.367279 411.121521,290.141937 415.209656,283.799072 
	C420.680450,275.310913 426.243225,266.882050 431.715759,258.394989 
	C438.323395,248.147552 444.877808,237.865784 451.968048,226.798492 
	C452.231354,228.591812 452.501007,229.571747 452.501282,230.551727 
	C452.520813,307.383789 452.504242,384.215881 452.574707,461.047882 
	C452.577484,464.074646 451.640656,465.779510 448.943542,467.324585 
	C434.213196,475.763153 419.640717,484.476715 404.972839,493.025146 
	C389.055054,502.302002 373.056641,511.440796 357.157806,520.749817 
	C336.861450,532.633545 316.638519,544.642639 296.366089,556.567322 
	C286.421539,562.416931 276.563080,568.438293 266.361816,573.804321 
	C264.357971,574.858398 260.535126,574.018127 258.275269,572.755615 
	C247.494232,566.732239 236.996994,560.203674 226.334442,553.964905 
	C211.857025,545.494019 197.268097,537.213013 182.822067,528.689453 
	C157.712799,513.874268 132.708237,498.881470 107.579926,484.098846 
	C103.039551,481.427826 105.041588,479.708710 107.202164,476.489685 
	C115.911964,463.512970 124.030708,450.141357 132.492966,436.996216 
	C145.724701,416.442169 158.987167,395.907135 172.371902,375.452545 
	C182.096481,360.591431 192.200226,345.977295 201.845551,331.065826 
	C214.561462,311.407288 226.909576,291.511108 239.571640,271.817291 
	C252.701447,251.395905 266.048950,231.114609 279.240784,210.732910 
	C288.091919,197.057755 296.751099,183.257889 305.657379,169.619064 
	C313.117218,158.195251 320.847321,146.948257 328.373474,135.567230 
	C330.148438,132.883102 331.584686,129.974960 333.558929,126.496475 
	C331.281433,126.302391 329.545532,126.025635 327.809540,126.025078 
	C259.644012,126.003212 191.478363,126.052086 123.313133,125.906136 
	C118.662331,125.896187 117.395981,127.169861 117.416672,131.810944 
	C117.595024,171.809494 117.554878,211.809265 117.431870,251.808228 
	C117.424377,254.244675 116.677040,256.998566 115.398201,259.061951 
	C102.523132,279.835449 89.466675,300.496552 76.447701,321.180786 
	C76.138283,321.672394 75.671738,322.065125 74.774780,323.066101 
	C74.774780,242.760422 74.774780,163.204880 74.774780,82.993507 
	C104.342239,82.993507 133.921112,82.993507 164.000000,82.993507 
M228.303589,505.276428 
	C238.358978,511.176636 248.625824,516.754761 258.358521,523.146362 
	C261.910706,525.479065 263.900146,525.360107 267.274017,523.216003 
	C276.306641,517.475769 285.626465,512.180298 294.908661,506.841064 
	C322.207672,491.138062 349.555817,475.520386 376.841919,459.794952 
	C378.956329,458.576416 380.736847,456.778473 383.687164,454.448547 
	C303.152344,454.448547 224.173126,454.448547 144.605347,454.448547 
	C145.022308,455.575287 145.061371,456.404999 145.452408,456.634186 
	C172.874039,472.708160 200.323822,488.734131 228.303589,505.276428 
z"/>
<path fill="#F9F9F9" opacity="1.000000" stroke="none" 
	d="
M168.055984,239.941330 
	C181.097778,220.212082 193.903229,200.766266 206.664368,181.291428 
	C210.676041,175.169189 214.468552,168.900604 218.594925,162.858505 
	C219.488174,161.550552 221.376160,160.130234 222.822205,160.112823 
	C238.946564,159.918915 255.074112,159.990524 271.721466,159.990524 
	C205.972366,261.772522 140.542648,363.060089 74.472107,465.339691 
	C74.472107,462.759155 74.472107,461.184326 74.472107,459.609528 
	C74.472107,437.789734 74.715500,415.965576 74.321983,394.152893 
	C74.205772,387.711273 75.979858,382.587433 79.475365,377.362854 
	C91.608704,359.227631 103.494667,340.924469 115.300079,322.572876 
	C130.625519,298.749359 145.785049,274.819092 161.012390,250.932480 
	C163.285950,247.365997 165.539627,243.786850 168.055984,239.941330 
z"/>
<path fill="#F9F9F9" opacity="1.000000" stroke="none" 
	d="
M266.099976,372.839691 
	C270.514648,365.763153 274.549042,358.876312 278.881744,352.182556 
	C285.622772,341.768188 292.677246,331.556488 299.403595,321.132904 
	C319.098419,290.612518 338.657562,260.004669 358.346802,229.480713 
	C371.269348,209.447021 384.385193,189.537994 397.306885,169.503738 
	C415.140350,141.854034 432.870850,114.137901 450.663574,86.461914 
	C450.910828,86.077278 451.394440,85.844597 452.243744,85.153877 
	C452.355652,86.966759 452.515747,88.362526 452.516846,89.758423 
	C452.532898,110.420189 452.119995,131.093750 452.716217,151.738327 
	C452.977570,160.787430 450.853851,168.271835 445.482574,175.457428 
	C439.540436,183.406631 434.273926,191.870438 428.881714,200.218964 
	C419.694458,214.443253 410.632507,228.748489 401.529602,243.027191 
	C391.484070,258.784546 381.539093,274.606750 371.394562,290.299988 
	C353.179352,318.478271 334.861542,346.590332 316.510803,374.680511 
	C315.830170,375.722382 314.359833,376.900879 313.247986,376.910522 
	C296.774536,377.053375 280.299469,377.009064 262.640594,377.009064 
	C264.133240,375.200348 264.993317,374.158142 266.099976,372.839691 
z"/>
<path fill="#000000" opacity="1.000000" stroke="none" 
	d="
M228.037415,505.020264 
	C200.323822,488.734131 172.874039,472.708160 145.452408,456.634186 
	C145.061371,456.404999 145.022308,455.575287 144.605347,454.448547 
	C224.173126,454.448547 303.152344,454.448547 383.687164,454.448547 
	C380.736847,456.778473 378.956329,458.576416 376.841919,459.794952 
	C349.555817,475.520386 322.207672,491.138062 294.908661,506.841064 
	C285.626465,512.180298 276.306641,517.475769 267.274017,523.216003 
	C263.900146,525.360107 261.910706,525.479065 258.358521,523.146362 
	C248.625824,516.754761 238.358978,511.176636 228.037415,505.020264 
z"/>
</svg>
