<svg xmlns="http://www.w3.org/2000/svg" viewBox="0 0 517 646">
  <path fill="#020817" d="M518,257 c0,130.3,0,260.2,0,390 C345.7,647,173.3,647,1,647 C1,431.7,1,216.3,1,1 C173.3,1,345.7,1,518,1 C518,86.2,518,171.3,518,257 M163.5,83 c-29.6,0-59.2,0-88.7,0 c0,80.2,0,159.8,0,240.1 c0.9-1,1.4-1.4,1.7-1.9 c13-20.7,26.1-41.4,39-62.1 c1.3-2.1,2-4.8,2-7.3 c0.1-40,0.2-80,0-120 c0-4.7,1.3-6,5.9-6 c68.2,0.1,136.3,0.1,204.5,0.1 c1.7,0,3.5,0.3,5.7,0.5 c-2,3.5-3.4,6.4-5.2,9.1 c-7.5,11.4-15.3,22.6-22.7,34.1 c-8.9,13.6-17.6,27.4-26.4,41.1 c-13.2,20.4-26.5,40.7-39.7,61.1 c-12.7,19.7-25,39.6-37.7,59.3 c-9.6,14.9-19.7,29.5-29.5,44.4 c-13.4,20.5-26.6,41-39.9,61.5 c-8.5,13.1-16.6,26.5-25.3,39.5 c-2.2,3.2-4.2,4.9,0.4,7.6 c25.1,14.8,50.1,29.8,75.2,44.6 c14.4,8.5,29,16.8,43.5,25.3 c10.7,6.2,21.2,12.8,31.9,18.8 c2.3,1.3,6.1,2.1,8.1,1 c10.2-5.4,20.1-11.4,30-17.2 c20.3-11.9,40.5-23.9,60.8-35.8 c15.9-9.3,31.9-18.4,47.8-27.7 c14.7-8.5,29.2-17.3,44-25.7 c2.7-1.5,3.6-3.3,3.6-6.3 c-0.1-76.8,0-153.7-0.1-230.5 c0-1-0.3-2-0.5-3.8 c-7.1,11.1-13.6,21.3-20.3,31.6 c-5.5,8.5-11,16.9-16.5,25.4 c-4.1,6.3-7.1,12.6-7,20.9 c0.6,33.7,0.2,67.3,0.3,101 c0,3.6-0.5,5.4-4.8,5.4 c-65.5-0.1-131-0.1-196.5-0.1 c-1.6,0-3.2-0.7-5.5-1.2 c70.7-109.2,140.8-217.6,211.5-326.8 C329.7,83,247.1,83,163.5,83 M167.8,240.2 c-2.3,3.6-4.5,7.2-6.8,10.7 c-15.2,23.9-30.4,47.8-45.7,71.6 c-11.8,18.4-23.7,36.7-35.8,54.8 c-3.5,5.2-5.3,10.3-5.2,16.8 c0.4,21.8,0.2,43.6,0.2,65.5 c0,1.6,0,3.2,0,5.7 c66.1-102.3,131.5-203.6,197.3-305.3 c-16.6,0-32.8-0.1-48.9,0.1 c-1.4,0-3.3,1.4-4.2,2.7 c-4.1,6-7.9,12.3-11.9,18.4 C193.9,200.8,181.1,220.2,167.8,240.2 M265.9,373.1 c-0.9,1-1.7,2.1-3.2,3.9 c17.7,0,34.1,0,50.6-0.1 c1.1,0,2.6-1.2,3.3-2.2 c18.4-28.1,36.7-56.2,54.9-84.4 c10.1-15.7,20.1-31.5,30.1-47.3 c9.1-14.3,18.2-28.6,27.4-42.8 c5.4-8.3,10.7-16.8,16.6-24.8 c5.4-7.2,7.5-14.7,7.2-23.7 c-0.6-20.6-0.2-41.3-0.2-62 c0-1.4-0.2-2.8-0.3-4.6 c-0.8,0.7-1.3,0.9-1.6,1.3 c-17.8,27.7-35.5,55.4-53.4,83 C384.4,189.5,371.3,209.4,358.3,229.5 c-19.7,30.5-39.3,61.1-58.9,91.7 c-6.7,10.4-13.8,20.6-20.5,31 c-4.3,6.7-8.4,13.6-13,20.9 z" />
  <path fill="#FCFCFC" d="M164,83 c83.1,0,165.7,0,249.3,0 c-70.7,109.2-140.8,217.6-211.5,326.8 c2.3,0.5,3.9,1.2,5.4,1.2 c65.5,0.1,131,0,196.5,0.1 c4.3,0,4.8-1.8,4.8-5.4 c-0.1-33.7,0.3-67.3-0.3-101 c-0.1-8.3,2.9-14.6,7-20.9 c5.5-8.5,11-16.9,16.5-25.4 c6.6-10.2,13.2-20.4,20.3-31.6 c0.3,1.8,0.5,2.8,0.5,3.8 c0,76.8-0.1,153.7,0.1,230.5 c0,3-0.9,4.8-3.6,6.3 c-14.7,8.5-29.2,17.3-44,25.7 c-15.9,9.3-31.9,18.4-47.8,27.7 c-20.3,11.9-40.5,23.9-60.8,35.8 c-9.9,5.9-19.8,11.4-30,17.2 c-2,1-5.8,0.2-8.1-1 c-10.7-6.2-21.2-12.8-31.9-18.8 c-14.5-8.5-29.1-16.8-43.5-25.3 c-25.1-14.8-50.1-29.8-75.2-44.6 c-4.5-2.7-2.6-4.4,0.4-7.6 c8.7-13,16.8-26.3,25.3-39.5 c13.2-20.5,26.5-41,39.9-61.5 c9.7-14.9,19.9-29.5,29.5-44.4 c12.7-19.7,25-39.6,37.7-59.3 c13.2-20.4,26.5-40.7,39.7-61.1 c8.9-13.6,17.6-27.4,26.4-41.1 c7.5-11.4,15.3-22.6,22.7-34.1 c1.8-2.7,3.2-5.7,5.2-9.1 c-2.2-0.2-4-0.5-5.7-0.5 c-68.2,0-136.3,0-204.5,0 c-4.6,0-5.9,1.3-5.9,6 c0.2,40,0.1,80,0,120 c0,2.5-0.7,5.2-2,7.3 c-12.9,20.8-26,41.4-39,62.1 c-0.3,0.5-0.8,0.9-1.7,1.9 c0-80.3,0-159.9,0-240.1 C104.3,83,133.9,83,164,83 M228.3,505.3 c10.1,5.9,20.3,11.5,30.1,17.9 c3.6,2.3,5.5,2.2,8.9,0.1 c9-5.7,18.4-11,27.6-16.3 c27.3-15.7,54.6-31.3,81.9-47 c2.1-1.2,3.9-3,6.8-5.4 c-80.5,0-159.5,0-239.1,0 c0.4,1.1,0.5,2,0.8,2.2 C172.9,472.7,200.3,488.7,228.3,505.3 z" />
  <path fill="#F9F9F9" d="M168.1,239.9 c13-19.7,25.8-39.2,38.6-58.6 c4-6.1,7.8-12.4,11.9-18.4 c0.9-1.3,2.8-2.8,4.2-2.8 c16.1-0.2,32.3-0.1,48.9-0.1 c-65.7,101.8-131.2,203.1-197.3,305.3 c0-2.6,0-4.2,0-5.7 c0-21.8,0.2-43.6-0.2-65.5 c-0.1-6.4,1.8-11.6,5.2-16.8 c12.1-18.1,24-36.5,35.8-54.8 c15.3-23.8,30.5-47.8,45.7-71.6 C163.3,247.4,165.5,243.8,168.1,239.9 z" />
  <path fill="#F9F9F9" d="M266.1,372.8 c4.4-7.1,8.5-14,12.8-20.7 c6.7-10.4,13.8-20.6,20.5-31 c19.7-30.5,39.3-61.1,58.9-91.7 c12.9-20,26-39.9,39-59.8 c17.8-27.7,35.5-55.4,53.4-83 c0.3-0.4,0.7-0.6,1.6-1.3 c0.1,1.8,0.2,3.2,0.3,4.6 c0,20.7-0.4,41.3,0.2,62 c0.3,8.9-1.8,16.4-7.2,23.7 c-5.9,8-11.2,16.5-16.6,24.8 c-9.1,14.3-18.2,28.6-27.4,42.8 c-10,15.8-20,31.6-30.1,47.3 c-18.3,28.2-36.6,56.3-54.9,84.4 c-0.7,1-2.2,2.2-3.3,2.2 c-16.5,0.1-33,0.1-50.6,0.1 C264.1,375.2,265,374.2,266.1,372.8 z" />
  <path fill="#020817" d="M228,505 c-27.7-16.3-55.2-32.3-82.6-48.4 c-0.4-0.2-0.4-1.1-0.8-2.2 c79.6,0,158.5,0,239.1,0 c-3-2.3-4.8-4.2-6.8-5.4 c-27.3-15.7-54.6-31.3-81.9-47 c-9.3,5.3-18.6,10.6-27.6,16.3 c-3.4,2.2-5.4,2.2-8.9-0.1 c-9.7-6.4-20-11.9-30.1-17.9 z" />
</svg>
